<svg width="213" height="55" viewBox="0 0 213 55" fill="none" xmlns="http://www.w3.org/2000/svg">
<g clip-path="url(#clip0_90_680)">
<path d="M108.533 47.4913H112.584V48.0812H107.84V39.7913H108.533V47.4913Z" fill="#1682F1"/>
<path d="M118.416 48.1928C117.896 48.1928 117.423 48.0652 117.013 47.8102C116.588 47.5551 116.273 47.1884 116.036 46.7261C115.8 46.2638 115.689 45.7536 115.689 45.1797V44.9406C115.689 44.3507 115.8 43.8087 116.036 43.3464C116.257 42.8681 116.572 42.5015 116.982 42.2304C117.392 41.9594 117.833 41.8159 118.306 41.8159C119.047 41.8159 119.63 42.071 120.071 42.5812C120.497 43.0913 120.717 43.7928 120.717 44.6696V45.0522H116.367V45.1797C116.367 45.8812 116.572 46.4551 116.966 46.9174C117.36 47.3797 117.865 47.6188 118.463 47.6188C118.826 47.6188 119.141 47.5551 119.425 47.4275C119.709 47.3 119.945 47.0768 120.181 46.7899L120.607 47.1087C120.118 47.8261 119.393 48.1928 118.448 48.1928H118.416ZM118.306 42.3899C117.801 42.3899 117.376 42.5812 117.029 42.9478C116.682 43.3304 116.478 43.8246 116.399 44.4623H120.055V44.3826C120.04 43.7928 119.866 43.3145 119.551 42.9319C119.236 42.5493 118.826 42.3739 118.306 42.3739V42.3899Z" fill="#1682F1"/>
<path d="M128.172 48.0812C128.109 47.8899 128.061 47.6029 128.046 47.2203C127.809 47.5392 127.51 47.7783 127.147 47.9377C126.785 48.0971 126.391 48.1928 125.981 48.1928C125.398 48.1928 124.925 48.0334 124.562 47.6986C124.2 47.3638 124.026 46.9493 124.026 46.4391C124.026 45.8334 124.279 45.371 124.767 45.0203C125.256 44.6696 125.949 44.4942 126.832 44.4942H128.046V43.7928C128.046 43.3464 127.904 43.0116 127.636 42.7565C127.368 42.5015 126.974 42.3739 126.469 42.3739C125.997 42.3739 125.618 42.5015 125.303 42.7406C124.988 42.9797 124.846 43.2826 124.846 43.6174H124.168C124.168 43.1232 124.389 42.6928 124.846 42.342C125.303 41.9913 125.855 41.8 126.501 41.8C127.147 41.8 127.715 41.9754 128.109 42.3102C128.503 42.6449 128.708 43.1392 128.708 43.7449V46.6623C128.708 47.2522 128.771 47.6986 128.897 48.0015V48.0652H128.172V48.0812ZM126.044 47.587C126.501 47.587 126.895 47.4754 127.257 47.2522C127.62 47.029 127.872 46.742 128.03 46.3754V45.0203H126.832C126.154 45.0203 125.634 45.1478 125.256 45.387C124.877 45.6261 124.688 45.9609 124.688 46.3754C124.688 46.7261 124.814 47.0131 125.067 47.2362C125.319 47.4594 125.65 47.571 126.06 47.571L126.044 47.587Z" fill="#1682F1"/>
<path d="M132.538 44.9406C132.538 43.9841 132.743 43.2189 133.169 42.6609C133.594 42.087 134.162 41.816 134.887 41.816C135.706 41.816 136.337 42.1507 136.762 42.8044V39.3449H137.44V48.0812H136.81L136.778 47.2681C136.352 47.8899 135.706 48.2087 134.871 48.2087C134.162 48.2087 133.61 47.9218 133.169 47.3478C132.743 46.7739 132.522 46.0087 132.522 45.0362V44.9565L132.538 44.9406ZM133.216 45.0681C133.216 45.8493 133.374 46.471 133.689 46.9333C134.004 47.3797 134.445 47.6189 135.013 47.6189C135.848 47.6189 136.431 47.2522 136.778 46.5029V43.6174C136.431 42.8203 135.848 42.4218 135.029 42.4218C134.461 42.4218 134.02 42.6449 133.705 43.0913C133.389 43.5377 133.232 44.2073 133.232 45.0841L133.216 45.0681Z" fill="#1682F1"/>
<path d="M152.87 48.0812H152.177L147.464 40.987V48.0812H146.771V39.7913H147.464L152.177 46.8855V39.7913H152.87V48.0812Z" fill="#1682F1"/>
<path d="M159.458 48.1928C158.938 48.1928 158.465 48.0652 158.055 47.8102C157.63 47.5551 157.315 47.1884 157.078 46.7261C156.842 46.2638 156.731 45.7536 156.731 45.1797V44.9406C156.731 44.3507 156.842 43.8087 157.078 43.3464C157.299 42.8681 157.614 42.5015 158.024 42.2304C158.434 41.9594 158.875 41.8159 159.348 41.8159C160.089 41.8159 160.672 42.071 161.113 42.5812C161.539 43.0913 161.759 43.7928 161.759 44.6696V45.0522H157.409V45.1797C157.409 45.8812 157.614 46.4551 158.008 46.9174C158.402 47.3797 158.907 47.6188 159.505 47.6188C159.868 47.6188 160.183 47.5551 160.467 47.4275C160.751 47.3 160.987 47.0768 161.223 46.7899L161.649 47.1087C161.16 47.8261 160.435 48.1928 159.49 48.1928H159.458ZM159.348 42.3899C158.843 42.3899 158.418 42.5812 158.071 42.9478C157.724 43.3304 157.52 43.8246 157.441 44.4623H161.097V44.3826C161.082 43.7928 160.908 43.3145 160.593 42.9319C160.278 42.5493 159.868 42.3739 159.348 42.3739V42.3899Z" fill="#1682F1"/>
<path d="M167.277 44.4145L168.916 41.9116H169.72L167.655 44.9406L169.814 48.0812H169.026L167.292 45.4667L165.559 48.0812H164.771L166.914 44.9406L164.849 41.9116H165.637L167.277 44.4145Z" fill="#1682F1"/>
<path d="M174.322 40.3493V41.9275H175.583V42.4855H174.322V46.5985C174.322 46.9333 174.385 47.1884 174.511 47.3638C174.637 47.5232 174.842 47.6188 175.126 47.6188C175.236 47.6188 175.425 47.6029 175.678 47.5551L175.709 48.113C175.536 48.1768 175.299 48.2087 174.984 48.2087C174.527 48.2087 174.18 48.0812 173.975 47.7942C173.77 47.5232 173.66 47.1246 173.66 46.5985V42.4855H172.541V41.9275H173.66V40.3493H174.338H174.322Z" fill="#1682F1"/>
<path d="M87.3975 27.7073H76.727L73.953 33.829H69.9023L82.2278 7.04639L94.1277 33.829H90.0139L87.3975 27.7073ZM85.8687 24.1203L82.1805 15.5594L78.3032 24.1203H85.8687Z" fill="#1682F1"/>
<path d="M98.4308 17.9189V27.0377C98.4308 29.6681 99.4553 30.9913 101.52 30.9913C103.585 30.9913 104.609 29.6681 104.609 27.0377V17.9189H108.234V27.1174C108.234 28.3928 108.077 29.4928 107.762 30.4174C107.462 31.2464 106.942 31.9957 106.201 32.6493C104.972 33.7333 103.411 34.2594 101.52 34.2594C99.6287 34.2594 98.084 33.7174 96.8546 32.6493C96.0981 31.9797 95.5622 31.2464 95.2627 30.4174C94.9633 29.6841 94.8057 28.5841 94.8057 27.1174V17.9189H98.4308Z" fill="#1682F1"/>
<path d="M114.901 21.3464V33.813H111.276V21.3464H109.731V17.9188H111.276V12.1H114.901V17.9188H117.722V21.3464H114.901Z" fill="#1682F1"/>
<path d="M118.022 25.7623C118.022 23.4667 118.842 21.5217 120.465 19.8957C122.089 18.2855 124.075 17.4725 126.408 17.4725C128.74 17.4725 130.742 18.2855 132.381 19.9116C133.989 21.5377 134.808 23.5304 134.808 25.8899C134.808 28.2493 133.989 30.2739 132.365 31.8841C130.726 33.4783 128.724 34.2754 126.345 34.2754C123.965 34.2754 122.01 33.4623 120.418 31.8203C118.826 30.2102 118.038 28.1855 118.038 25.7464L118.022 25.7623ZM121.726 25.8261C121.726 27.4203 122.152 28.6638 122.987 29.5884C123.854 30.529 124.989 30.9913 126.392 30.9913C127.795 30.9913 128.945 30.529 129.796 29.6044C130.647 28.6797 131.073 27.4522 131.073 25.9058C131.073 24.3594 130.647 23.1319 129.796 22.2073C128.929 21.2667 127.795 20.8044 126.392 20.8044C124.989 20.8044 123.886 21.2667 123.019 22.2073C122.152 23.1478 121.726 24.3435 121.726 25.8261Z" fill="#1682F1"/>
<path d="M136.479 24.0884H143.682V27.2928H136.479V24.0884Z" fill="#1682F1"/>
<path d="M144.139 33.7652L149.387 6.67972L157.946 26.2725L166.804 6.67972L171.516 33.7652H167.655L165.243 18.5565L157.867 34.929L150.696 18.5406L148.016 33.7652H144.123H144.139Z" fill="#1682F1"/>
<path d="M184.299 17.871H187.94V33.7652H184.299V32.1072C182.802 33.5261 181.194 34.2275 179.476 34.2275C177.301 34.2275 175.504 33.4304 174.086 31.8522C172.683 30.2261 171.974 28.2015 171.974 25.7783C171.974 23.3551 172.683 21.4101 174.086 19.8159C175.488 18.2217 177.254 17.4406 179.382 17.4406C181.21 17.4406 182.849 18.2058 184.299 19.7203V17.871ZM175.678 25.7623C175.678 27.2928 176.087 28.5203 176.891 29.4768C177.727 30.4493 178.767 30.9275 180.028 30.9275C181.367 30.9275 182.455 30.4652 183.29 29.5246C184.126 28.5522 184.535 27.3246 184.535 25.842C184.535 24.3594 184.126 23.1159 183.29 22.1594C182.455 21.2188 181.383 20.7406 180.059 20.7406C178.814 20.7406 177.774 21.2188 176.923 22.1754C176.087 23.1478 175.678 24.3435 175.678 25.7623Z" fill="#1682F1"/>
<path d="M194.623 21.2986V33.7652H190.998V21.2986H189.453V17.871H190.998V12.0522H194.623V17.871H197.444V21.2986H194.623Z" fill="#1682F1"/>
<path d="M212.859 26.687H201.589C201.684 27.9942 202.11 29.0305 202.85 29.8116C203.591 30.5768 204.553 30.9594 205.703 30.9594C206.602 30.9594 207.358 30.7363 207.941 30.3058C208.524 29.8754 209.186 29.0623 209.927 27.8826L213.001 29.6203C212.528 30.4334 212.023 31.1348 211.503 31.7247C210.983 32.3145 210.416 32.7928 209.801 33.1594C209.186 33.5261 208.54 33.8131 207.847 33.9884C207.153 34.1638 206.397 34.2435 205.577 34.2435C203.229 34.2435 201.353 33.4783 199.934 31.9638C198.516 30.4334 197.807 28.3928 197.807 25.858C197.807 23.3232 198.5 21.3145 199.871 19.7522C201.258 18.2218 203.102 17.4565 205.388 17.4565C207.673 17.4565 209.533 18.2058 210.873 19.6884C212.213 21.171 212.875 23.2116 212.875 25.842V26.7029L212.859 26.687ZM209.139 23.6739C208.635 21.7131 207.405 20.7406 205.482 20.7406C205.041 20.7406 204.631 20.8044 204.237 20.9478C203.843 21.0913 203.497 21.2826 203.181 21.5377C202.866 21.7928 202.598 22.0957 202.362 22.4623C202.125 22.829 201.968 23.2276 201.842 23.6899H209.139V23.6739Z" fill="#1682F1"/>
<path d="M31.3968 0L0 55H21.1991L31.3968 37.1449L41.5944 55H62.7935L31.3968 0ZM31.3968 33.542C29.5369 33.542 28.0238 32.0116 28.0238 30.1304C28.0238 28.2493 29.5369 26.7188 31.3968 26.7188C33.2566 26.7188 34.7697 28.2493 34.7697 30.1304C34.7697 32.0116 33.2566 33.542 31.3968 33.542Z" fill="#1682F1"/>
</g>
<defs>
<clipPath id="clip0_90_680">
<rect width="213" height="55" fill="white"/>
</clipPath>
</defs>
</svg>
