<svg width="369" height="351" viewBox="0 0 369 351" fill="none" xmlns="http://www.w3.org/2000/svg">
<path d="M115.745 350.354H135.878L181.503 232.584C182.266 231.298 183.028 231.06 184.315 231.06C185.601 231.06 186.602 231.322 187.126 232.584L232.752 350.354H252.646L203.185 224.436C200.135 216.288 194.012 213.214 184.315 213.214C174.618 213.214 168.757 216.264 165.445 224.436L115.745 350.354Z" fill="url(#paint0_linear_90_373)"/>
<path d="M0 166.802L6.21845 185.957L132.327 192.962C133.78 193.296 134.256 193.939 134.638 195.154C135.019 196.369 135.114 197.417 134.042 198.299L36.1432 278.091L42.2902 297.008L146.765 211.069C153.579 205.637 154.603 198.871 151.601 189.65C148.599 180.43 143.882 175.808 135.114 175.188L0 166.826L0 166.802Z" fill="url(#paint1_linear_90_373)"/>
<path d="M138.808 0.0244141L122.512 11.8657L154.819 133.971C154.938 135.448 154.485 136.115 153.461 136.854C152.436 137.593 151.459 137.998 150.292 137.259L44.1496 68.8085L28.0674 80.5068L142.096 153.317C149.363 158.106 156.105 157.01 163.944 151.292C171.783 145.574 174.713 139.665 172.616 131.136L138.808 0.0482264V0.0244141Z" fill="url(#paint2_linear_90_373)"/>
<path d="M340.323 80.4824L324.027 68.6412L217.884 137.092C216.526 137.664 215.74 137.425 214.716 136.687C213.691 135.948 213 135.138 213.334 133.804L245.641 11.6983L229.559 0L195.56 130.945C193.249 139.331 196.394 145.407 204.232 151.101C212.071 156.795 218.599 157.772 226.08 153.102L340.323 80.4348V80.4824Z" fill="url(#paint3_linear_90_373)"/>
<path d="M326.076 297.009L332.294 277.853L234.396 198.062C233.419 196.942 233.419 196.132 233.8 194.917C234.181 193.702 234.753 192.82 236.111 192.725L362.219 185.72L368.366 166.803L233.323 174.927C224.627 175.308 219.814 180.193 216.836 189.413C213.858 198.634 214.93 205.138 221.673 210.808L326.076 296.985V297.009Z" fill="url(#paint4_linear_90_373)"/>
<defs>
<linearGradient id="paint0_linear_90_373" x1="184.172" y1="351.474" x2="186.435" y2="213.262" gradientUnits="userSpaceOnUse">
<stop stop-color="#CCE0F4"/>
<stop offset="0.06" stop-color="#C2DCF2"/>
<stop offset="0.17" stop-color="#A9D2EE"/>
<stop offset="0.31" stop-color="#7FC2E7"/>
<stop offset="0.46" stop-color="#46ABDD"/>
<stop offset="0.57" stop-color="#1E9CD7"/>
<stop offset="0.87" stop-color="#0075BE"/>
<stop offset="0.99" stop-color="#005B97"/>
</linearGradient>
<linearGradient id="paint1_linear_90_373" x1="20.0888" y1="232.244" x2="152.251" y2="191.657" gradientUnits="userSpaceOnUse">
<stop stop-color="#CCE0F4"/>
<stop offset="0.06" stop-color="#C2DCF2"/>
<stop offset="0.17" stop-color="#A9D2EE"/>
<stop offset="0.31" stop-color="#7FC2E7"/>
<stop offset="0.46" stop-color="#46ABDD"/>
<stop offset="0.57" stop-color="#1E9CD7"/>
<stop offset="0.87" stop-color="#0075BE"/>
<stop offset="0.99" stop-color="#005B97"/>
</linearGradient>
<linearGradient id="paint2_linear_90_373" x1="82.7862" y1="39.3568" x2="162.213" y2="152.489" gradientUnits="userSpaceOnUse">
<stop stop-color="#CCE0F4"/>
<stop offset="0.06" stop-color="#C2DCF2"/>
<stop offset="0.17" stop-color="#A9D2EE"/>
<stop offset="0.31" stop-color="#7FC2E7"/>
<stop offset="0.46" stop-color="#46ABDD"/>
<stop offset="0.57" stop-color="#1E9CD7"/>
<stop offset="0.87" stop-color="#0075BE"/>
<stop offset="0.99" stop-color="#005B97"/>
</linearGradient>
<linearGradient id="paint3_linear_90_373" x1="285.612" y1="39.3596" x2="202.562" y2="149.859" gradientUnits="userSpaceOnUse">
<stop stop-color="#CCE0F4"/>
<stop offset="0.06" stop-color="#C2DCF2"/>
<stop offset="0.17" stop-color="#A9D2EE"/>
<stop offset="0.31" stop-color="#7FC2E7"/>
<stop offset="0.46" stop-color="#46ABDD"/>
<stop offset="0.57" stop-color="#1E9CD7"/>
<stop offset="0.87" stop-color="#0075BE"/>
<stop offset="0.99" stop-color="#005B97"/>
</linearGradient>
<linearGradient id="paint4_linear_90_373" x1="348.282" y1="232.261" x2="217.504" y2="187.413" gradientUnits="userSpaceOnUse">
<stop stop-color="#CCE0F4"/>
<stop offset="0.06" stop-color="#C2DCF2"/>
<stop offset="0.17" stop-color="#A9D2EE"/>
<stop offset="0.31" stop-color="#7FC2E7"/>
<stop offset="0.46" stop-color="#46ABDD"/>
<stop offset="0.57" stop-color="#1E9CD7"/>
<stop offset="0.87" stop-color="#0075BE"/>
<stop offset="0.99" stop-color="#005B97"/>
</linearGradient>
</defs>
</svg>
